<svg xmlns="http://www.w3.org/2000/svg" viewBox="0 0 500 500">
  <!-- Grünes Haus -->
  <path d="M220 60 L380 140 L380 280 L220 280 Z" fill="#1a7f5a"/>
  
  <!-- Haus Details -->
  <rect x="245" y="140" width="110" height="140" fill="none" stroke="#1a7f5a" stroke-width="8"/>
  <rect x="245" y="140" width="25" height="50" fill="#1a7f5a"/>
  <rect x="330" y="140" width="25" height="50" fill="#1a7f5a"/>
  <rect x="277" y="170" width="50" height="40" fill="white" stroke="#1a7f5a" stroke-width="3"/>
  
  <!-- LKW -->
  <path d="M115 200 L190 200 L190 280 L115 280 Z" fill="#1a7f5a"/>
  <rect x="140" y="220" width="30" height="20" fill="white"/>
  
  <!-- Box mit Häkchen -->
  <rect x="195" y="200" width="80" height="80" fill="#1a7f5a" rx="5"/>
  <rect x="200" y="205" width="70" height="70" fill="white" rx="3"/>
  <path d="M220 240 L235 255 L265 225" stroke="#1a7f5a" stroke-width="8" fill="none" stroke-linecap="round" stroke-linejoin="round"/>
  
  <!-- Räder -->
  <circle cx="145" cy="285" r="20" fill="white" stroke="#1a7f5a" stroke-width="6"/>
  <circle cx="145" cy="285" r="8" fill="#1a7f5a"/>
  <circle cx="250" cy="285" r="20" fill="white" stroke="#1a7f5a" stroke-width="6"/>
  <circle cx="250" cy="285" r="8" fill="#1a7f5a"/>
  
  <!-- Text FRANKEN -->
  <text x="250" y="360" font-family="Arial Black, sans-serif" font-size="70" font-weight="900" text-anchor="middle" fill="#000000">FRANKEN</text>
  
  <!-- Text ENTRÜMPELUNG -->
  <text x="250" y="420" font-family="Arial, sans-serif" font-size="42" font-weight="700" text-anchor="middle" fill="#1a7f5a" letter-spacing="3">ENTRÜMPELUNG</text>
</svg>

